<svg xmlns="http://www.w3.org/2000/svg" width="200" height="200" viewBox="0 0 200 200">
  <!-- Outer Circle (Base of the randomizer) -->
  <circle cx="100" cy="100" r="80" fill="#F0F8FF" stroke="#FF6F61" stroke-width="4" />

  <!-- Inner Circle (Center of the spinner) -->
  <circle cx="100" cy="100" r="25" fill="#FF6F61" />

  <!-- Central Arrow (Main pointer) -->
  <polygon points="95,40 105,40 100,10" fill="#FF6F61" stroke="#C1440E" stroke-width="2" />

  <!-- Extra Random Arrows (Around the center for more randomness) -->
  <polygon points="50,150 60,150 55,180" fill="#FFD700" stroke="#FF4500" stroke-width="2" />
  <polygon points="150,60 160,60 155,30" fill="#90EE90" stroke="#32CD32" stroke-width="2" />
  <polygon points="80,70 85,70 82.5,40" fill="#87CEEB" stroke="#1E90FF" stroke-width="2" />

  <!-- Dashed lines indicating different random directions -->
  <line x1="100" y1="100" x2="130" y2="50" stroke="#FF6F61" stroke-dasharray="5,5" stroke-width="2" />
  <line x1="100" y1="100" x2="50" y2="150" stroke="#FFD700" stroke-dasharray="5,5" stroke-width="2" />
  <line x1="100" y1="100" x2="150" y2="160" stroke="#87CEEB" stroke-dasharray="5,5" stroke-width="2" />
  <line x1="100" y1="100" x2="30" y2="80" stroke="#90EE90" stroke-dasharray="5,5" stroke-width="2" />

  <!-- Random Dots (to symbolize chaos and randomness) -->
  <circle cx="40" cy="60" r="6" fill="#FF4500" />
  <circle cx="160" cy="140" r="4" fill="#32CD32" />
  <circle cx="70" cy="130" r="5" fill="#1E90FF" />
  <circle cx="120" cy="170" r="3" fill="#FFD700" />

  <!-- Irregular Tick Marks Around the Circle (Adding more randomness) -->
  <line x1="100" y1="20" x2="100" y2="35" stroke="#FF6F61" stroke-width="2" />
  <line x1="160" y1="40" x2="150" y2="50" stroke="#FF4500" stroke-width="2" />
  <line x1="180" y1="100" x2="165" y2="100" stroke="#32CD32" stroke-width="2" />
  <line x1="160" y1="160" x2="150" y2="150" stroke="#1E90FF" stroke-width="2" />
  <line x1="100" y1="180" x2="100" y2="165" stroke="#FFD700" stroke-width="2" />
  <line x1="40" y1="160" x2="50" y2="150" stroke="#87CEEB" stroke-width="2" />
  <line x1="20" y1="100" x2="35" y2="100" stroke="#FF6F61" stroke-width="2" />
  <line x1="40" y1="40" x2="50" y2="50" stroke="#32CD32" stroke-width="2" />

  <!-- Random Zigzag Line (Just to be fun and chaotic!) -->
  <polyline points="50,50 70,70 90,40 110,70 130,50" fill="none" stroke="#FF6F61" stroke-width="2" stroke-dasharray="4,4" />
</svg>
